<?xml version="1.0" encoding="UTF-8" standalone="no"?>
<!-- Created with Inkscape (http://www.inkscape.org/) -->

<svg
   width="210mm"
   height="297mm"
   viewBox="0 0 210 297"
   version="1.1"
   id="svg1"
   inkscape:version="1.3.2 (091e20e, 2023-11-25, custom)"
   sodipodi:docname="stockLogo.svg"
   xmlns:inkscape="http://www.inkscape.org/namespaces/inkscape"
   xmlns:sodipodi="http://sodipodi.sourceforge.net/DTD/sodipodi-0.dtd"
   xmlns="http://www.w3.org/2000/svg"
   xmlns:svg="http://www.w3.org/2000/svg">
  <sodipodi:namedview
     id="namedview1"
     pagecolor="#505050"
     bordercolor="#ffffff"
     borderopacity="1"
     inkscape:showpageshadow="0"
     inkscape:pageopacity="0"
     inkscape:pagecheckerboard="1"
     inkscape:deskcolor="#505050"
     inkscape:document-units="mm"
     inkscape:zoom="0.76702441"
     inkscape:cx="396.98867"
     inkscape:cy="561.25984"
     inkscape:window-width="1920"
     inkscape:window-height="1057"
     inkscape:window-x="-8"
     inkscape:window-y="-8"
     inkscape:window-maximized="1"
     inkscape:current-layer="layer1" />
  <defs
     id="defs1">
    <clipPath
       clipPathUnits="userSpaceOnUse"
       id="clipPath3">
      <path
         d="M 0,500 H 500 V 0 H 0 Z"
         transform="translate(-147.88341,-442.12471)"
         id="path3" />
    </clipPath>
    <clipPath
       clipPathUnits="userSpaceOnUse"
       id="clipPath5">
      <path
         d="m 66.145,360.385 c 0,-45.113 36.458,-84.352 81.571,-84.352 v 0 c 45.113,0 81.907,39.239 81.907,84.352 v 0 c 0,45.114 -36.626,81.74 -81.74,81.74 v 0 c -45.113,0 -81.738,-36.626 -81.738,-81.74"
         transform="translate(-195.3463,-339.95971)"
         id="path5" />
    </clipPath>
    <clipPath
       clipPathUnits="userSpaceOnUse"
       id="clipPath7">
      <path
         d="m 66.145,360.385 c 0,-45.113 36.458,-84.352 81.571,-84.352 v 0 c 45.113,0 81.907,39.239 81.907,84.352 v 0 c 0,45.114 -36.626,81.74 -81.74,81.74 v 0 c -45.113,0 -81.738,-36.626 -81.738,-81.74"
         transform="translate(-159.714,-302.24241)"
         id="path7" />
    </clipPath>
    <clipPath
       clipPathUnits="userSpaceOnUse"
       id="clipPath9">
      <path
         d="M 0,500 H 500 V 0 H 0 Z"
         transform="translate(-147.9484,-403.09201)"
         id="path9" />
    </clipPath>
    <clipPath
       clipPathUnits="userSpaceOnUse"
       id="clipPath11">
      <path
         d="M 0,500 H 500 V 0 H 0 Z"
         transform="translate(-141.46641,-420.98751)"
         id="path11" />
    </clipPath>
    <clipPath
       clipPathUnits="userSpaceOnUse"
       id="clipPath13">
      <path
         d="M 0,500 H 500 V 0 H 0 Z"
         transform="translate(-111.9811,-315.44601)"
         id="path13" />
    </clipPath>
    <clipPath
       clipPathUnits="userSpaceOnUse"
       id="clipPath15">
      <path
         d="M 0,500 H 500 V 0 H 0 Z"
         transform="translate(-142.65441,-372.19651)"
         id="path15" />
    </clipPath>
    <clipPath
       clipPathUnits="userSpaceOnUse"
       id="clipPath17">
      <path
         d="M 0,500 H 500 V 0 H 0 Z"
         transform="translate(-173.8825,-315.44601)"
         id="path17" />
    </clipPath>
  </defs>
  <g
     inkscape:label="Layer 1"
     inkscape:groupmode="layer"
     id="layer1">
    <path
       id="path2"
       d="m 0,0 c 45.113,0 81.74,-36.626 81.74,-81.739 0,-45.114 -36.627,-81.74 -81.74,-81.74 -45.113,0 -81.739,36.626 -81.739,81.74 C -81.739,-36.626 -45.113,0 0,0"
       style="fill:#0a3b63 icc-color(Adobe-RGB-1998, 0.14498901, 0.23899841, 0.38398743);fill-opacity:1;fill-rule:evenodd;stroke:none"
       transform="matrix(0.56167203,0,0,-0.56378207,110.38229,87.51153)"
       clip-path="url(#clipPath3)" />
    <path
       id="path4"
       d="M 0,0 -47.569,16.312 -94.686,0 V -68.563 H 0 Z"
       style="fill:#ffffff icc-color(Adobe-RGB-1998, 1, 1, 1);fill-opacity:1;fill-rule:evenodd;stroke:none"
       transform="matrix(0.56167203,0,0,-0.56378207,137.04087,142.49113)"
       clip-path="url(#clipPath5)" />
    <path
       id="path6"
       d="M 0,0 C 0,6.2 -5.033,11.233 -11.233,11.233 -17.433,11.233 -22.467,6.2 -22.467,0 v -33.774 c 0,-6.199 5.034,-11.232 11.234,-11.232 6.2,0 11.233,5.033 11.233,11.232 z"
       style="fill:#0a3b63 icc-color(Adobe-RGB-1998, 0.14498901, 0.23899841, 0.38398743);fill-opacity:1;fill-rule:evenodd;stroke:none"
       transform="matrix(0.56167203,0,0,-0.56378207,117.0272,163.75546)"
       clip-path="url(#clipPath7)" />
    <path
       id="path8"
       d="m 0,0 -22.766,-12.221 0.201,-39.111 22.389,6.687 22.753,-6.337 0.027,38.794 z"
       style="fill:#ffffff icc-color(Adobe-RGB-1998, 1, 1, 1);fill-opacity:1;fill-rule:evenodd;stroke:none"
       transform="matrix(0.56167203,0,0,-0.56378207,101.61209,106.89825)"
       clip-path="url(#clipPath9)" />
    <path
       id="path10"
       d="M 0,0 H 4.685 L 4.689,6.443 H 8.145 L 8.127,0 h 4.707 V -3.455 H 8.118 l -0.035,-12.481 -1.678,0.92 -1.733,-0.915 0.011,12.476 H 0 Z"
       style="fill:#ffffff icc-color(Adobe-RGB-1998, 1, 1, 1);fill-opacity:1;fill-rule:evenodd;stroke:none"
       transform="matrix(0.56167203,0,0,-0.56378207,106.77804,96.809103)"
       clip-path="url(#clipPath11)" />
    <path
       id="path12"
       d="m 0,0 v 8.373 c 0,2.951 2.396,5.347 5.348,5.347 2.951,0 5.347,-2.396 5.347,-5.347 V 0 Z"
       style="fill:#0a3b63 icc-color(Adobe-RGB-1998, 0.14498901, 0.23899841, 0.38398743);fill-opacity:1;fill-rule:evenodd;stroke:none"
       transform="matrix(0.56167203,0,0,-0.56378207,90.216966,156.3115)"
       clip-path="url(#clipPath13)" />
    <path
       id="path14"
       d="m 0,0 v 8.371 c 0,2.951 2.396,5.348 5.348,5.348 2.951,0 5.348,-2.397 5.348,-5.348 V 0 Z"
       style="fill:#0a3b63 icc-color(Adobe-RGB-1998, 0.14498901, 0.23899841, 0.38398743);fill-opacity:1;fill-rule:evenodd;stroke:none"
       transform="matrix(0.56167203,0,0,-0.56378207,107.44531,124.31659)"
       clip-path="url(#clipPath15)" />
    <path
       id="path16"
       d="m 0,0 v 8.373 c 0,2.951 2.396,5.347 5.348,5.347 2.951,0 5.347,-2.396 5.347,-5.347 V 0 Z"
       style="fill:#0a3b63 icc-color(Adobe-RGB-1998, 0.14498901, 0.23899841, 0.38398743);fill-opacity:1;fill-rule:evenodd;stroke:none"
       transform="matrix(0.56167203,0,0,-0.56378207,124.98524,156.3115)"
       clip-path="url(#clipPath17)" />
  </g>
</svg>
